<?xml version="1.0" encoding="utf-8"?>
<!-- Generator: Adobe Illustrator 17.1.0, SVG Export Plug-In . SVG Version: 6.00 Build 0)  -->
<!DOCTYPE svg PUBLIC "-//W3C//DTD SVG 1.1//EN" "http://www.w3.org/Graphics/SVG/1.1/DTD/svg11.dtd">
<svg version="1.1" id="Layer_1" xmlns="http://www.w3.org/2000/svg" xmlns:xlink="http://www.w3.org/1999/xlink" x="0px" y="0px"
	 viewBox="0 0 960 560" enable-background="new 0 0 960 560" xml:space="preserve">
<g id="logo">
	<rect id="background" x="200" fill="#F7DF1E" width="560" height="560"/>
	<path id="j" d="M347.2,468l42.9-25.9c8.3,14.7,15.8,27.1,33.8,27.1c17.3,0,28.2-6.8,28.2-33.1V257.1h52.6v179.7
		c0,54.5-32,79.3-78.6,79.3C384.1,516.1,359.6,494.3,347.2,468"/>
	<path id="s" d="M533.3,462.3l42.9-24.8c11.3,18.4,25.9,32,51.9,32c21.8,0,35.7-10.9,35.7-25.9c0-18-14.3-24.4-38.3-35l-13.2-5.6
		c-38-16.2-63.2-36.5-63.2-79.3c0-39.5,30.1-69.5,77.1-69.5c33.5,0,57.5,11.7,74.8,42.1l-41,26.3c-9-16.2-18.8-22.6-33.8-22.6
		c-15.4,0-25.2,9.8-25.2,22.6c0,15.8,9.8,22.2,32.3,32l13.2,5.6c44.7,19.2,69.9,38.7,69.9,82.7c0,47.4-37.2,73.3-87.2,73.3
		C580.3,516.1,548.7,492.8,533.3,462.3"/>
</g>
<text transform="matrix(1 0 0 1 254 214)" font-family="'Silom'" font-size="120">AARHUS</text>
</svg>
